<mxfile host="app.diagrams.net" modified="2022-02-21T11:36:21.614Z" agent="5.0 (Windows NT 10.0; Win64; x64) AppleWebKit/537.36 (KHTML, like Gecko) Chrome/98.0.4758.102 Safari/537.36" etag="Zxgd1emnhr5FVCc4ZF8o" version="14.7.8" type="github">
  <diagram id="-OoYSx5NyRQf7LlmxAGl" name="Page-1">
    <mxGraphModel dx="1422" dy="766" grid="1" gridSize="10" guides="1" tooltips="1" connect="1" arrows="1" fold="1" page="1" pageScale="1" pageWidth="827" pageHeight="1169" math="0" shadow="0">
      <root>
        <mxCell id="0" />
        <mxCell id="1" parent="0" />
        <mxCell id="9LlxkQ5ToEord1wcStN6-1" value="User 2" style="swimlane;fontStyle=0;childLayout=stackLayout;horizontal=1;startSize=20;fillColor=#ffffff;horizontalStack=0;resizeParent=1;resizeParentMax=0;resizeLast=0;collapsible=0;marginBottom=0;swimlaneFillColor=#ffffff;" vertex="1" parent="1">
          <mxGeometry x="40" y="150" width="120" height="110" as="geometry" />
        </mxCell>
        <mxCell id="9LlxkQ5ToEord1wcStN6-2" value="ID" style="html=1;dashed=0;whitespace=wrap;shape=partialRectangle;right=0;left=0;" vertex="1" parent="9LlxkQ5ToEord1wcStN6-1">
          <mxGeometry y="20" width="120" height="30" as="geometry" />
        </mxCell>
        <mxCell id="9LlxkQ5ToEord1wcStN6-3" value="NAME" style="html=1;dashed=0;whitespace=wrap;shape=partialRectangle;right=0;left=0;" vertex="1" parent="9LlxkQ5ToEord1wcStN6-1">
          <mxGeometry y="50" width="120" height="30" as="geometry" />
        </mxCell>
        <mxCell id="9LlxkQ5ToEord1wcStN6-4" value="SERVER ID" style="html=1;dashed=0;whitespace=wrap;shape=partialRectangle;right=0;left=0;" vertex="1" parent="9LlxkQ5ToEord1wcStN6-1">
          <mxGeometry y="80" width="120" height="30" as="geometry" />
        </mxCell>
        <mxCell id="9LlxkQ5ToEord1wcStN6-5" value="Server A" style="swimlane;fontStyle=0;childLayout=stackLayout;horizontal=1;startSize=20;fillColor=#ffffff;horizontalStack=0;resizeParent=1;resizeParentMax=0;resizeLast=0;collapsible=0;marginBottom=0;swimlaneFillColor=#ffffff;" vertex="1" parent="1">
          <mxGeometry x="350" y="280" width="170" height="290" as="geometry" />
        </mxCell>
        <mxCell id="9LlxkQ5ToEord1wcStN6-6" value="ID" style="html=1;dashed=0;whitespace=wrap;shape=partialRectangle;right=0;" vertex="1" parent="9LlxkQ5ToEord1wcStN6-5">
          <mxGeometry y="20" width="170" height="30" as="geometry" />
        </mxCell>
        <mxCell id="9LlxkQ5ToEord1wcStN6-7" value="NAME" style="html=1;dashed=0;whitespace=wrap;shape=partialRectangle;right=0;" vertex="1" parent="9LlxkQ5ToEord1wcStN6-5">
          <mxGeometry y="50" width="170" height="30" as="geometry" />
        </mxCell>
        <mxCell id="9LlxkQ5ToEord1wcStN6-8" value="RUN CMD" style="html=1;dashed=0;whitespace=wrap;shape=partialRectangle;right=0;" vertex="1" parent="9LlxkQ5ToEord1wcStN6-5">
          <mxGeometry y="80" width="170" height="30" as="geometry" />
        </mxCell>
        <mxCell id="9LlxkQ5ToEord1wcStN6-9" value="MEMORY" style="html=1;dashed=0;whitespace=wrap;shape=partialRectangle;right=0;" vertex="1" parent="9LlxkQ5ToEord1wcStN6-5">
          <mxGeometry y="110" width="170" height="30" as="geometry" />
        </mxCell>
        <mxCell id="9LlxkQ5ToEord1wcStN6-10" value="CPU" style="html=1;dashed=0;whitespace=wrap;shape=partialRectangle;right=0;" vertex="1" parent="9LlxkQ5ToEord1wcStN6-5">
          <mxGeometry y="140" width="170" height="30" as="geometry" />
        </mxCell>
        <mxCell id="9LlxkQ5ToEord1wcStN6-11" value="NODE ID" style="html=1;dashed=0;whitespace=wrap;shape=partialRectangle;right=0;" vertex="1" parent="9LlxkQ5ToEord1wcStN6-5">
          <mxGeometry y="170" width="170" height="30" as="geometry" />
        </mxCell>
        <mxCell id="9LlxkQ5ToEord1wcStN6-12" value="DOCKER ID" style="html=1;dashed=0;whitespace=wrap;shape=partialRectangle;right=0;" vertex="1" parent="9LlxkQ5ToEord1wcStN6-5">
          <mxGeometry y="200" width="170" height="30" as="geometry" />
        </mxCell>
        <mxCell id="9LlxkQ5ToEord1wcStN6-13" value="DOCKER CONTAINER" style="html=1;dashed=0;whitespace=wrap;shape=partialRectangle;right=0;" vertex="1" parent="9LlxkQ5ToEord1wcStN6-5">
          <mxGeometry y="230" width="170" height="30" as="geometry" />
        </mxCell>
        <mxCell id="9LlxkQ5ToEord1wcStN6-14" value="VOLUME (/var/lib/volumes)" style="html=1;dashed=0;whitespace=wrap;shape=partialRectangle;right=0;" vertex="1" parent="9LlxkQ5ToEord1wcStN6-5">
          <mxGeometry y="260" width="170" height="30" as="geometry" />
        </mxCell>
        <mxCell id="9LlxkQ5ToEord1wcStN6-15" value="Linker" style="swimlane;fontStyle=0;childLayout=stackLayout;horizontal=1;startSize=20;fillColor=#ffffff;horizontalStack=0;resizeParent=1;resizeParentMax=0;resizeLast=0;collapsible=0;marginBottom=0;swimlaneFillColor=#ffffff;" vertex="1" parent="1">
          <mxGeometry x="280" y="100" width="80" height="80" as="geometry" />
        </mxCell>
        <mxCell id="9LlxkQ5ToEord1wcStN6-16" value="NODE ID" style="html=1;dashed=0;whitespace=wrap;shape=partialRectangle;right=0;left=0;" vertex="1" parent="9LlxkQ5ToEord1wcStN6-15">
          <mxGeometry y="20" width="80" height="30" as="geometry" />
        </mxCell>
        <mxCell id="9LlxkQ5ToEord1wcStN6-17" value="SERVER ID" style="html=1;dashed=0;whitespace=wrap;shape=partialRectangle;right=0;left=0;" vertex="1" parent="9LlxkQ5ToEord1wcStN6-15">
          <mxGeometry y="50" width="80" height="30" as="geometry" />
        </mxCell>
        <mxCell id="9LlxkQ5ToEord1wcStN6-18" value="User 1" style="swimlane;fontStyle=0;childLayout=stackLayout;horizontal=1;startSize=20;fillColor=#ffffff;horizontalStack=0;resizeParent=1;resizeParentMax=0;resizeLast=0;collapsible=0;marginBottom=0;swimlaneFillColor=#ffffff;" vertex="1" parent="1">
          <mxGeometry x="40" y="10" width="120" height="110" as="geometry" />
        </mxCell>
        <mxCell id="9LlxkQ5ToEord1wcStN6-19" value="ID" style="html=1;dashed=0;whitespace=wrap;shape=partialRectangle;right=0;left=0;" vertex="1" parent="9LlxkQ5ToEord1wcStN6-18">
          <mxGeometry y="20" width="120" height="30" as="geometry" />
        </mxCell>
        <mxCell id="9LlxkQ5ToEord1wcStN6-20" value="NAME" style="html=1;dashed=0;whitespace=wrap;shape=partialRectangle;right=0;left=0;" vertex="1" parent="9LlxkQ5ToEord1wcStN6-18">
          <mxGeometry y="50" width="120" height="30" as="geometry" />
        </mxCell>
        <mxCell id="9LlxkQ5ToEord1wcStN6-21" value="SERVER ID" style="html=1;dashed=0;whitespace=wrap;shape=partialRectangle;right=0;left=0;" vertex="1" parent="9LlxkQ5ToEord1wcStN6-18">
          <mxGeometry y="80" width="120" height="30" as="geometry" />
        </mxCell>
        <mxCell id="9LlxkQ5ToEord1wcStN6-22" style="edgeStyle=orthogonalEdgeStyle;rounded=0;orthogonalLoop=1;jettySize=auto;html=1;entryX=0;entryY=0.5;entryDx=0;entryDy=0;" edge="1" parent="1" source="9LlxkQ5ToEord1wcStN6-21" target="9LlxkQ5ToEord1wcStN6-17">
          <mxGeometry relative="1" as="geometry" />
        </mxCell>
        <mxCell id="9LlxkQ5ToEord1wcStN6-23" style="edgeStyle=orthogonalEdgeStyle;rounded=0;orthogonalLoop=1;jettySize=auto;html=1;entryX=0;entryY=0.5;entryDx=0;entryDy=0;" edge="1" parent="1" source="9LlxkQ5ToEord1wcStN6-4" target="9LlxkQ5ToEord1wcStN6-17">
          <mxGeometry relative="1" as="geometry" />
        </mxCell>
        <mxCell id="9LlxkQ5ToEord1wcStN6-24" value="Node" style="swimlane;fontStyle=0;childLayout=stackLayout;horizontal=1;startSize=20;fillColor=#ffffff;horizontalStack=0;resizeParent=1;resizeParentMax=0;resizeLast=0;collapsible=0;marginBottom=0;swimlaneFillColor=#ffffff;" vertex="1" parent="1">
          <mxGeometry x="440" y="100" width="160" height="140" as="geometry" />
        </mxCell>
        <mxCell id="9LlxkQ5ToEord1wcStN6-25" value="ID" style="html=1;dashed=0;whitespace=wrap;shape=partialRectangle;right=0;left=0;" vertex="1" parent="9LlxkQ5ToEord1wcStN6-24">
          <mxGeometry y="20" width="160" height="30" as="geometry" />
        </mxCell>
        <mxCell id="9LlxkQ5ToEord1wcStN6-26" value="LOCATION (EN/GB)" style="html=1;dashed=0;whitespace=wrap;shape=partialRectangle;right=0;left=0;" vertex="1" parent="9LlxkQ5ToEord1wcStN6-24">
          <mxGeometry y="50" width="160" height="30" as="geometry" />
        </mxCell>
        <mxCell id="9LlxkQ5ToEord1wcStN6-27" value="MAX STORAGE (MB)" style="html=1;dashed=0;whitespace=wrap;shape=partialRectangle;right=0;left=0;" vertex="1" parent="9LlxkQ5ToEord1wcStN6-24">
          <mxGeometry y="80" width="160" height="30" as="geometry" />
        </mxCell>
        <mxCell id="9LlxkQ5ToEord1wcStN6-28" value="IP ADDRESS" style="html=1;dashed=0;whitespace=wrap;shape=partialRectangle;right=0;" vertex="1" parent="9LlxkQ5ToEord1wcStN6-24">
          <mxGeometry y="110" width="160" height="30" as="geometry" />
        </mxCell>
        <mxCell id="9LlxkQ5ToEord1wcStN6-29" style="edgeStyle=orthogonalEdgeStyle;rounded=0;orthogonalLoop=1;jettySize=auto;html=1;entryX=0;entryY=0.5;entryDx=0;entryDy=0;exitX=0.5;exitY=1;exitDx=0;exitDy=0;" edge="1" parent="1" source="9LlxkQ5ToEord1wcStN6-17" target="9LlxkQ5ToEord1wcStN6-6">
          <mxGeometry relative="1" as="geometry">
            <Array as="points">
              <mxPoint x="320" y="315" />
            </Array>
          </mxGeometry>
        </mxCell>
        <mxCell id="9LlxkQ5ToEord1wcStN6-30" style="edgeStyle=orthogonalEdgeStyle;rounded=0;orthogonalLoop=1;jettySize=auto;html=1;" edge="1" parent="1" source="9LlxkQ5ToEord1wcStN6-28" target="9LlxkQ5ToEord1wcStN6-5">
          <mxGeometry relative="1" as="geometry">
            <Array as="points">
              <mxPoint x="423" y="230" />
            </Array>
          </mxGeometry>
        </mxCell>
        <mxCell id="9LlxkQ5ToEord1wcStN6-31" style="edgeStyle=orthogonalEdgeStyle;rounded=0;orthogonalLoop=1;jettySize=auto;html=1;entryX=0;entryY=0.5;entryDx=0;entryDy=0;" edge="1" parent="1" source="9LlxkQ5ToEord1wcStN6-16" target="9LlxkQ5ToEord1wcStN6-25">
          <mxGeometry relative="1" as="geometry" />
        </mxCell>
      </root>
    </mxGraphModel>
  </diagram>
</mxfile>
